<?xml version="1.0" standalone="no"?>
<!DOCTYPE svg PUBLIC "-//W3C//DTD SVG 20010904//EN"
 "http://www.w3.org/TR/2001/REC-SVG-20010904/DTD/svg10.dtd">
<svg version="1.0" xmlns="http://www.w3.org/2000/svg"
 width="350.000000pt" height="420.000000pt" viewBox="0 0 350.000000 420.000000"
 preserveAspectRatio="xMidYMid meet">

<g transform="translate(0.000000,420.000000) scale(0.100000,-0.100000)"
fill="#000000" stroke="none">
<path d="M3 2953 c3 -1231 3 -1250 25 -1367 49 -270 165 -480 342 -621 72 -57
214 -155 224 -155 4 0 32 -16 62 -35 30 -19 56 -35 59 -35 2 0 46 -26 97 -57
124 -75 189 -111 338 -184 69 -34 145 -76 170 -93 25 -17 63 -40 85 -51 50
-24 271 -243 311 -307 16 -27 31 -48 34 -48 3 0 18 21 35 48 16 26 81 99 145
163 107 108 131 126 300 230 8 5 67 34 130 64 63 31 131 65 150 77 201 119
251 148 258 148 4 0 33 17 64 38 31 20 85 53 119 72 34 19 67 40 73 45 6 6 41
34 77 63 207 163 320 356 371 638 22 117 22 137 25 1367 l4 1247 -1751 0
-1751 0 4 -1247z m3457 699 l0 -508 -40 -10 c-44 -12 -50 -6 -50 47 0 25 -4
29 -29 29 -53 0 -61 -8 -61 -61 0 -27 -2 -49 -4 -49 -1 0 -34 -11 -72 -25 -38
-14 -70 -25 -71 -25 -2 0 -3 8 -3 18 0 35 -30 63 -63 60 -31 -3 -32 -5 -31
-48 0 -25 4 -53 8 -62 6 -14 4 -18 -11 -18 -10 0 -53 -17 -94 -38 l-76 -38
-24 38 c-13 21 -32 38 -41 38 -19 0 -62 -37 -56 -48 2 -4 10 -19 17 -34 8 -16
19 -28 25 -28 6 0 -22 -18 -63 -41 -40 -22 -75 -38 -76 -37 -1 2 -8 13 -14 26
-13 25 -38 28 -66 8 -17 -12 -17 -16 -5 -47 10 -23 11 -34 3 -36 -7 -3 -27
-17 -45 -33 -37 -34 -50 -36 -68 -15 -7 8 -25 15 -41 15 -27 0 -29 -2 -29 -42
0 -37 -5 -47 -38 -74 -51 -42 -70 -48 -77 -23 -8 23 -57 26 -75 4 -10 -12 -10
-21 -1 -42 6 -14 10 -27 9 -28 -21 -16 -157 -105 -161 -105 -3 0 -10 13 -16
30 -19 56 -90 22 -77 -38 6 -24 3 -30 -19 -40 -37 -17 -41 -15 -40 16 0 24 -3
27 -34 25 -24 -1 -30 2 -22 10 6 6 11 19 11 29 0 22 10 26 88 42 51 10 57 14
60 38 3 24 -1 28 -38 38 -23 6 -47 9 -54 7 -8 -3 -10 8 -8 34 4 37 6 39 37 39
55 0 87 17 83 43 -3 19 -10 22 -59 25 l-56 3 3 57 2 57 42 9 c38 8 41 11 38
40 -3 29 -6 31 -49 34 l-47 3 -16 66 c-19 74 -17 78 46 88 24 4 39 13 43 26
10 32 -3 39 -71 39 -60 0 -65 2 -74 26 -21 55 -15 63 43 57 41 -4 56 -2 66 11
18 21 7 46 -21 46 -13 0 -39 4 -58 10 -34 9 -35 11 -32 53 4 42 5 44 50 56 57
15 72 27 72 58 0 31 -24 39 -67 24 -19 -7 -37 -10 -41 -7 -7 7 9 59 40 128 17
37 24 45 35 37 7 -6 24 -8 38 -5 37 9 34 51 -5 71 l-30 16 15 37 c40 96 38 92
71 86 27 -5 32 -2 43 25 14 32 8 51 -15 51 -19 0 -18 9 6 48 17 27 25 32 60
32 38 0 40 2 40 30 0 20 -5 30 -15 30 -20 0 -19 21 2 65 l17 35 668 0 668 0 0
-508z m-1370 377 c0 -5 -4 -8 -9 -5 -4 3 -38 2 -75 -2 -37 -5 -63 -5 -59 -1 7
7 48 13 116 17 15 1 27 -3 27 -9z m-92 -134 c28 -10 11 -26 -20 -19 -29 6 -74
11 -115 13 -7 1 -13 7 -13 14 0 11 14 12 68 5 37 -4 73 -10 80 -13z m-1396
-26 c-48 -31 -142 -51 -142 -29 0 11 114 49 150 49 24 1 24 0 -8 -20z m1269
-166 c55 -26 82 -52 40 -38 -11 3 -28 7 -38 9 -40 8 -94 36 -88 46 9 15 21 13
86 -17z m-1111 -31 c0 -15 -75 -50 -122 -57 -69 -10 -60 8 20 38 70 27 102 33
102 19z m130 -131 c0 -22 -49 -161 -61 -175 -21 -23 -20 33 1 98 13 39 24 77
26 84 5 20 34 14 34 -7z m1010 -95 c-16 -14 -139 -51 -146 -43 -7 6 116 55
141 56 17 1 17 -1 5 -13z m-800 -96 c0 -4 -20 -21 -45 -37 -25 -15 -45 -31
-45 -34 0 -10 -82 -41 -89 -33 -9 9 58 63 105 84 23 10 45 23 49 29 7 12 25 6
25 -9z m740 -86 l55 -13 -62 4 c-57 3 -103 17 -103 31 0 4 12 3 28 -1 15 -4
52 -14 82 -21z m-651 -47 c-5 -17 -13 -41 -19 -52 -5 -11 -15 -33 -21 -50 -6
-16 -13 -25 -16 -18 -2 7 0 21 6 32 6 11 11 31 11 46 0 32 28 88 40 80 5 -3 5
-19 -1 -38z m2154 -72 c7 -47 0 -105 -13 -105 -10 0 -20 53 -20 106 0 61 25
60 33 -1z m-1963 -32 c0 -5 -24 -23 -53 -42 -28 -19 -62 -43 -73 -54 -13 -11
-24 -14 -28 -9 -3 6 6 20 21 31 16 11 34 26 42 33 44 39 91 60 91 41z m540 -4
c0 -5 -6 -9 -12 -9 -7 0 -42 -5 -77 -10 -71 -10 -88 -6 -70 16 9 11 32 14 86
13 40 -1 73 -6 73 -10z m1175 -29 c16 -30 21 -120 7 -120 -12 0 -55 127 -47
139 11 18 24 12 40 -19z m-287 -122 c18 -24 51 -108 43 -112 -11 -7 -79 96
-73 112 5 15 17 15 30 0z m-1288 -59 c-65 -11 -142 -11 -135 1 3 5 45 9 93 8
75 -1 81 -2 42 -9z m435 -8 c9 -15 -9 -21 -80 -28 -55 -5 -65 -4 -65 10 0 10
11 17 33 20 63 8 106 7 112 -2z m666 -106 c31 -70 18 -90 -14 -22 -31 65 -31
67 -16 67 5 0 19 -20 30 -45z m-971 -15 c0 -5 -6 -10 -13 -10 -7 0 -36 -16
-64 -35 -51 -34 -83 -44 -83 -26 0 8 136 80 153 81 4 0 7 -4 7 -10z m330 -80
c0 -5 -24 -10 -54 -10 -30 0 -61 -3 -70 -6 -11 -4 -16 -1 -16 10 0 13 12 16
70 16 40 0 70 -4 70 -10z m459 -3 c6 -8 18 -33 26 -57 21 -60 4 -74 -29 -24
-33 51 -44 94 -23 94 8 0 20 -6 26 -13z m-719 -102 c0 -2 -34 -27 -74 -55 -47
-31 -77 -46 -82 -39 -8 14 5 27 69 66 46 28 87 41 87 28z m549 -66 c21 -47 21
-76 0 -63 -15 9 -60 115 -53 126 10 15 30 -9 53 -63z m-315 22 c6 -9 -107 -41
-144 -41 -11 0 -20 6 -20 13 0 20 153 46 164 28z m61 -154 c14 -43 16 -60 7
-69 -8 -8 -13 -5 -20 13 -22 56 -34 108 -27 119 10 16 18 4 40 -63z m-772 -29
c23 -76 30 -135 16 -143 -16 -11 -26 11 -34 74 -3 31 -9 71 -12 89 -9 51 13
37 30 -20z m464 16 l29 -36 57 28 c55 27 83 28 56 2 -8 -8 -29 -20 -46 -27
-18 -7 -33 -15 -33 -16 0 -1 7 -19 15 -39 17 -41 9 -45 -27 -16 -21 16 -35 18
-77 13 -58 -7 -65 4 -21 30 29 18 30 19 15 47 -31 59 -11 68 32 14z m-277 -5
c0 -44 -21 -120 -32 -117 -5 2 -9 7 -9 11 1 4 1 36 1 72 0 58 2 65 20 65 16 0
20 -7 20 -31z m127 -39 c-6 -67 -12 -80 -33 -80 -10 0 -14 6 -10 18 2 9 8 41
11 70 5 37 11 52 22 52 12 0 14 -11 10 -60z m-66 -61 l-3 -52 33 7 c40 7 59
29 59 68 0 18 5 28 15 28 18 0 19 -12 4 -27 -7 -7 -9 -19 -5 -29 5 -13 14 -15
46 -10 l39 6 -24 -24 c-16 -16 -31 -22 -48 -19 -18 4 -29 -2 -41 -18 -21 -31
-20 -52 3 -73 19 -17 18 -18 -6 -62 -18 -32 -31 -44 -48 -44 -32 0 -44 -67
-16 -90 15 -12 18 -23 12 -60 -6 -42 -8 -45 -39 -48 -57 -6 -52 -54 7 -67 22
-5 29 -14 39 -51 19 -71 19 -73 -45 -76 -55 -3 -58 -4 -55 -28 3 -29 14 -37
64 -45 35 -6 38 -9 38 -40 0 -58 -3 -60 -85 -57 -74 4 -75 3 -75 -21 0 -32 20
-48 77 -58 25 -5 48 -10 50 -12 1 -2 -6 -21 -17 -42 -11 -22 -20 -47 -20 -57
0 -15 -8 -18 -45 -18 -35 0 -47 -5 -55 -21 -17 -30 -6 -46 35 -53 32 -6 36
-10 31 -29 -3 -12 -6 -61 -6 -108 l0 -86 -54 5 c-60 5 -69 -2 -57 -44 6 -25
14 -30 57 -38 l50 -8 17 -84 c10 -46 20 -90 23 -97 4 -11 -7 -16 -42 -22 -63
-9 -74 -14 -74 -35 0 -32 35 -52 85 -48 41 3 46 1 52 -21 3 -13 2 -40 -3 -60
-8 -34 -12 -37 -61 -45 -29 -5 -53 -13 -53 -18 0 -5 -26 6 -57 23 -80 45 -191
99 -201 99 -5 0 -62 31 -126 70 -64 39 -120 70 -124 70 -5 0 -17 9 -27 20 -10
11 -24 20 -32 20 -7 0 -13 5 -13 10 0 6 -6 10 -13 10 -13 0 -127 66 -237 138
-98 63 -181 134 -231 196 -27 34 -56 68 -65 77 -8 9 -35 55 -59 102 l-44 86
26 21 27 21 22 -28 c19 -25 24 -26 48 -15 33 15 33 42 2 79 l-24 29 35 47 36
48 18 -31 c23 -37 41 -45 68 -30 28 14 27 23 -9 75 -28 41 -29 44 -12 63 9 11
29 23 45 26 24 6 30 2 48 -29 24 -40 20 -39 54 -23 29 13 31 29 9 64 -21 31
-14 39 58 57 57 15 78 10 78 -19 0 -25 21 -25 55 1 29 23 33 30 24 47 -6 11
-9 21 -7 22 2 1 23 12 48 25 25 13 63 37 85 53 39 28 40 28 47 7 5 -14 14 -19
24 -15 9 3 20 6 25 6 5 0 8 27 7 60 -3 57 -1 61 34 97 32 31 39 35 53 23 12
-10 21 -10 41 -1 27 12 27 18 9 78 -6 18 4 34 51 84 l59 61 11 -38 c12 -43 24
-50 53 -34 16 8 21 21 21 54 0 36 4 45 25 54 40 18 45 15 45 -27 0 -30 5 -41
19 -46 31 -10 49 5 60 51 9 36 16 44 34 44 20 0 22 -4 18 -51z m-441 -122 c32
-67 36 -87 20 -87 -10 0 -47 65 -66 118 -10 26 -9 32 2 32 8 0 28 -29 44 -63z
m619 21 c85 -38 61 -79 -24 -44 -19 8 -35 13 -35 10 0 -3 -9 0 -20 6 -16 9
-18 15 -10 30 14 25 27 25 89 -2z m-758 -178 c10 -25 18 -61 18 -80 l0 -35
-15 35 c-48 109 -55 132 -38 128 9 -2 25 -23 35 -48z m684 -4 c43 -15 66 -40
50 -54 -6 -5 -37 -2 -72 6 -48 10 -63 18 -63 31 0 35 21 39 85 17z m-944 -163
c60 -64 65 -73 48 -84 -8 -5 -17 -9 -20 -9 -9 0 -66 83 -73 108 -11 32 5 27
45 -15z m932 -35 c9 0 17 -4 17 -10 0 -7 -19 -9 -57 -4 -32 4 -63 8 -70 8 -7
1 -10 5 -7 10 3 5 27 6 52 2 26 -4 55 -7 65 -6z m-1133 -38 c0 -6 11 -28 25
-50 42 -66 29 -97 -16 -38 -53 71 -61 98 -29 98 11 0 20 -5 20 -10z m-138
-137 c35 -38 62 -82 55 -90 -10 -9 -31 13 -65 67 -34 55 -30 65 10 23z m1298
-27 c0 -12 -119 -10 -150 3 -19 8 -5 10 63 8 48 -1 87 -6 87 -11z m-1458 -63
c10 -9 18 -21 18 -28 0 -6 16 -30 35 -52 34 -41 44 -63 26 -63 -8 0 -94 110
-115 148 -10 18 14 15 36 -5z m1415 -107 c17 -18 16 -18 -62 -13 -88 6 -118
14 -109 29 4 6 38 8 80 6 55 -2 78 -8 91 -22z m-32 -197 c12 -18 -3 -23 -67
-21 -71 2 -101 9 -93 23 8 13 152 11 160 -2z m-53 -306 c22 -13 -8 -23 -50
-18 -81 11 -102 16 -102 27 0 10 134 3 152 -9z m46 -265 c4 -19 -40 -31 -115
-32 -64 -1 -56 15 17 34 77 21 94 20 98 -2z m-10 -234 c-12 -11 -131 -9 -135
3 -3 8 15 13 59 15 59 3 89 -4 76 -18z"/>
</g>
</svg>
