<?xml version="1.0" standalone="no"?>
<!DOCTYPE svg PUBLIC "-//W3C//DTD SVG 20010904//EN"
 "http://www.w3.org/TR/2001/REC-SVG-20010904/DTD/svg10.dtd">
<svg version="1.0" xmlns="http://www.w3.org/2000/svg"
 width="2617.000000pt" height="2883.000000pt" viewBox="0 0 2617.000000 2883.000000"
 preserveAspectRatio="xMidYMid meet">

<g transform="translate(0.000000,2883.000000) scale(0.100000,-0.100000)"
fill="#000000" stroke="none">
<path d="M3 22423 c2 -4899 6 -6439 15 -6538 60 -649 116 -1047 221 -1573 544
-2724 1858 -5403 3780 -7707 2017 -2419 4656 -4438 7926 -6065 429 -213 1036
-501 1115 -529 34 -12 44 -8 410 164 1001 471 1873 931 2711 1431 2902 1730
5231 3834 6936 6264 889 1268 1620 2658 2138 4065 527 1431 847 2922 905 4210
6 140 10 2493 10 6453 l0 6232 -13085 0 -13085 0 3 -6407z m13467 3837 c209
-718 383 -1312 386 -1322 3 -12 -12 -26 -58 -54 -93 -55 -165 -113 -239 -190
-82 -87 -124 -148 -166 -244 l-32 -75 -111 -3 -110 -3 -2 1313 -3 1313 -65 0
-65 0 -3 -1312 -2 -1313 -99 0 -98 0 -22 59 c-30 84 -112 204 -195 287 -63 63
-243 194 -267 194 -5 0 -9 7 -9 16 0 13 750 2600 767 2644 3 8 7 11 9 5 2 -5
175 -597 384 -1315z m387 685 c115 -9 235 -20 268 -25 33 -6 97 -10 142 -10
44 0 470 -25 945 -55 476 -30 914 -57 974 -59 120 -5 268 -22 299 -36 21 -10
2007 -300 2051 -300 22 0 185 -70 917 -391 l167 -74 0 -37 c0 -35 2 -37 38
-44 20 -4 118 -24 217 -46 99 -21 217 -46 262 -55 78 -16 88 -21 175 -90 51
-41 116 -95 143 -122 30 -28 85 -64 138 -89 49 -23 90 -42 92 -42 3 0 83 -34
180 -75 96 -41 180 -75 186 -75 11 0 102 -91 143 -142 12 -15 147 -98 305
-187 156 -89 285 -161 287 -161 1 0 57 -31 124 -70 67 -38 123 -70 125 -70 10
0 201 -114 203 -122 2 -4 10 -14 17 -21 7 -7 20 -29 30 -47 10 -19 21 -37 25
-40 4 -3 17 -23 29 -45 12 -22 41 -71 64 -110 24 -38 63 -104 87 -145 24 -41
58 -95 75 -120 35 -50 202 -330 213 -358 7 -17 100 -107 138 -133 22 -15 175
-151 204 -182 10 -10 21 -33 25 -50 4 -18 9 -36 11 -42 2 -5 10 -35 19 -65 9
-30 18 -62 20 -70 3 -8 13 -49 24 -90 11 -41 29 -109 41 -150 12 -41 25 -89
29 -106 5 -17 21 -54 37 -83 16 -28 65 -115 108 -194 43 -78 99 -178 124 -222
113 -200 138 -246 188 -338 29 -55 59 -106 68 -116 8 -9 18 -32 21 -51 3 -19
8 -48 11 -65 13 -78 16 -95 30 -165 9 -41 18 -84 20 -95 3 -11 9 -42 14 -70 6
-27 12 -61 15 -75 3 -14 14 -77 25 -140 11 -63 29 -158 40 -210 35 -162 112
-572 126 -670 4 -25 10 -47 14 -50 5 -4 33 -152 46 -245 1 -11 5 -33 8 -50 14
-80 24 -142 31 -204 4 -30 8 -61 10 -70 1 -9 6 -61 9 -116 3 -55 8 -134 11
-175 3 -41 12 -174 20 -295 8 -121 33 -501 55 -845 22 -344 46 -701 54 -795 8
-114 12 -349 11 -710 -1 -484 -3 -543 -17 -565 -10 -14 -17 -29 -17 -35 0 -5
-7 -26 -15 -45 -39 -93 -88 -216 -90 -225 -1 -5 -7 -26 -13 -45 -36 -112 -80
-277 -98 -370 -2 -8 -4 -16 -5 -17 -3 -4 -5 -12 -14 -63 -5 -25 -19 -76 -31
-115 -13 -38 -28 -99 -35 -135 -6 -36 -15 -74 -20 -85 -4 -11 -26 -94 -48
-185 -37 -152 -48 -195 -88 -335 -8 -27 -16 -61 -19 -75 -2 -14 -9 -40 -14
-59 -6 -19 -9 -37 -6 -39 2 -3 -2 -17 -11 -33 -8 -16 -14 -31 -14 -34 1 -7
-26 -105 -50 -185 -10 -36 -31 -105 -45 -155 -15 -49 -35 -117 -45 -150 -10
-33 -24 -87 -30 -119 -7 -33 -16 -67 -21 -75 -16 -30 -37 -86 -54 -141 -9 -30
-20 -64 -25 -75 -12 -31 -66 -183 -88 -250 -35 -105 -108 -311 -133 -372 -5
-13 -13 -33 -18 -45 -59 -147 -173 -438 -208 -532 -24 -65 -50 -128 -58 -140
-7 -11 -19 -43 -26 -71 -16 -67 -37 -115 -49 -115 -5 0 -46 -75 -91 -167 -45
-93 -121 -249 -170 -349 -49 -100 -89 -186 -89 -192 0 -6 -3 -12 -7 -14 -5 -2
-22 -30 -39 -63 -54 -105 -117 -220 -129 -235 -7 -8 -20 -31 -29 -50 -9 -19
-43 -78 -76 -130 -33 -52 -65 -106 -71 -120 -6 -14 -16 -32 -24 -40 -7 -8 -22
-31 -33 -50 -16 -29 -61 -103 -107 -179 -6 -9 -23 -38 -40 -66 -16 -27 -49
-79 -73 -113 -24 -35 -46 -71 -49 -80 -4 -10 -18 -32 -31 -49 -13 -18 -21 -33
-17 -33 4 0 -8 -18 -25 -40 -17 -22 -29 -40 -25 -40 4 0 -4 -15 -19 -34 -14
-19 -26 -38 -26 -42 0 -4 -10 -24 -23 -43 -71 -109 -156 -240 -172 -266 -10
-16 -22 -34 -27 -40 -20 -24 -248 -347 -248 -351 0 -3 -16 -21 -35 -41 -19
-20 -35 -40 -35 -44 0 -5 -30 -48 -67 -96 -182 -240 -228 -300 -254 -328 -15
-16 -53 -66 -84 -110 -31 -44 -72 -98 -91 -120 -19 -22 -37 -44 -42 -50 -4 -5
-29 -37 -54 -70 -26 -33 -61 -76 -78 -95 -66 -74 -131 -149 -215 -250 -48 -58
-129 -150 -180 -205 -50 -55 -111 -122 -135 -150 -48 -56 -208 -232 -256 -281
-18 -18 -33 -37 -35 -42 -2 -6 -49 -57 -104 -114 -55 -57 -114 -119 -131 -138
-17 -19 -84 -87 -150 -150 -65 -63 -200 -194 -299 -291 -99 -96 -241 -224
-315 -283 -269 -216 -360 -289 -645 -521 -159 -130 -345 -282 -412 -338 -67
-56 -154 -127 -194 -157 -40 -30 -92 -73 -115 -95 -42 -40 -238 -189 -278
-212 -27 -16 -136 -93 -231 -163 -86 -64 -168 -124 -283 -206 -45 -32 -122
-88 -171 -124 -48 -36 -152 -110 -230 -165 -79 -55 -165 -117 -192 -137 -27
-21 -52 -38 -57 -38 -27 0 -43 -44 -60 -160 l-17 -124 -250 -142 c-138 -79
-261 -149 -275 -156 -14 -7 -28 -18 -33 -25 -4 -6 -28 -22 -52 -34 -25 -13
-53 -31 -62 -41 -9 -10 -20 -18 -24 -18 -5 0 -102 -54 -216 -119 -115 -65
-231 -132 -259 -147 -29 -16 -63 -38 -77 -49 -34 -25 -58 -38 -212 -113 -72
-35 -132 -68 -135 -72 -3 -5 -86 -54 -185 -111 -99 -56 -182 -105 -185 -109
-3 -5 -63 -34 -135 -65 -71 -31 -132 -60 -135 -64 -3 -5 -21 -17 -40 -28 -43
-23 -319 -180 -340 -193 -27 -17 -124 -58 -168 -71 -38 -11 -47 -10 -74 6 -17
10 -41 19 -52 21 -21 2 -91 33 -136 59 -47 28 -251 125 -258 122 -9 -3 -360
202 -364 212 -4 11 -245 131 -262 131 -7 0 -32 13 -57 28 -24 16 -98 61 -164
100 -66 38 -133 82 -150 96 -16 14 -34 26 -40 26 -5 0 -73 38 -150 84 -289
172 -350 209 -360 210 -14 2 -109 57 -115 67 -8 12 -487 292 -561 328 -37 18
-95 56 -130 84 -36 29 -72 57 -80 62 -9 6 -45 30 -79 55 -34 25 -100 70 -145
100 -101 68 -182 128 -256 192 -31 26 -61 48 -67 48 -6 0 -23 15 -39 33 -29
34 -182 151 -231 176 -30 15 -159 114 -182 140 -8 9 -85 72 -169 141 -85 68
-173 141 -194 162 -22 21 -45 38 -52 38 -7 0 -46 32 -86 70 -41 39 -93 85
-117 103 -52 39 -183 147 -272 225 -35 31 -80 69 -100 83 -19 14 -64 55 -100
90 -36 35 -94 89 -129 119 -34 30 -75 66 -90 80 -15 14 -58 52 -96 85 -37 33
-84 75 -104 92 -20 18 -39 33 -42 33 -4 0 -38 30 -77 68 -267 256 -280 270
-292 308 -7 21 -29 54 -49 72 -160 149 -259 244 -359 346 -64 65 -192 195
-284 287 -93 93 -168 172 -168 177 0 4 -29 39 -65 78 -69 73 -177 190 -269
290 -31 33 -56 64 -56 68 0 4 -24 31 -53 59 -50 49 -112 117 -202 222 -22 25
-50 58 -63 72 -12 15 -33 39 -45 55 -24 32 -32 42 -92 114 -22 26 -46 53 -52
60 -7 7 -13 16 -13 21 0 4 -13 22 -28 40 -89 104 -112 133 -176 216 -38 51
-76 98 -83 105 -7 7 -13 16 -13 20 0 4 -14 22 -30 41 -17 18 -30 37 -30 40 0
4 -12 20 -28 37 -34 38 -85 105 -92 120 -3 6 -21 30 -40 54 -18 23 -39 50 -45
60 -5 10 -59 83 -118 162 -59 79 -111 148 -115 153 -16 22 -128 187 -137 203
-5 9 -13 19 -16 22 -4 3 -9 14 -13 26 -3 11 -14 29 -24 40 -20 23 -156 227
-172 259 -3 6 -27 44 -55 85 -27 41 -57 90 -67 108 -10 18 -60 97 -111 175
-52 78 -104 160 -117 182 -53 92 -64 112 -88 160 -14 28 -33 61 -42 75 -9 14
-38 66 -65 115 -26 50 -54 97 -61 106 -8 9 -28 42 -45 75 -17 32 -42 79 -55
104 -13 25 -24 50 -24 57 0 6 -3 13 -7 15 -10 4 -73 131 -73 146 0 7 -4 12 -9
12 -5 0 -12 12 -16 27 -3 15 -10 30 -14 33 -4 3 -30 52 -59 110 -29 58 -71
141 -95 185 -23 44 -51 100 -61 125 -23 56 -21 50 -30 83 -5 15 -12 27 -17 27
-5 0 -9 6 -9 14 0 8 -8 21 -19 28 -10 7 -26 34 -35 60 -8 26 -20 56 -26 65 -5
10 -24 54 -41 98 -17 44 -37 94 -44 110 -31 72 -105 253 -105 259 0 3 -11 29
-24 56 -14 28 -28 65 -31 83 -7 32 -30 105 -46 142 -4 11 -20 56 -35 100 -14
44 -32 94 -39 110 -7 17 -27 73 -44 125 -18 52 -36 102 -41 111 -5 9 -12 33
-15 53 -4 20 -11 36 -16 36 -5 0 -9 9 -9 20 0 19 -23 88 -39 120 -5 9 -12 31
-16 50 -4 19 -11 41 -15 50 -14 30 -32 86 -41 130 -5 25 -15 59 -23 75 -8 17
-20 57 -27 90 -7 33 -16 62 -19 65 -4 3 -15 39 -25 80 -10 41 -21 80 -25 85
-5 6 -14 38 -21 73 -6 35 -18 69 -25 77 -7 7 -11 15 -9 17 6 6 -26 129 -65
258 -16 52 -66 241 -110 419 -45 177 -85 330 -90 340 -5 9 -18 63 -29 121 -11
58 -29 139 -41 180 -12 41 -30 116 -40 165 -15 76 -57 197 -126 365 -8 19 -16
46 -19 59 -2 13 -11 34 -19 46 -17 26 -25 269 -27 825 0 344 3 416 71 1305 22
286 47 621 56 745 9 124 20 234 24 245 5 11 15 124 24 250 9 127 21 289 26
362 5 73 14 140 19 150 5 10 19 45 31 78 12 33 26 69 30 80 4 11 22 58 40 105
18 47 36 94 40 105 12 30 45 119 45 125 1 3 6 15 13 28 7 12 10 22 6 22 -3 0
0 10 8 23 12 18 24 49 33 87 0 3 6 15 13 28 7 12 10 22 7 22 -3 0 0 10 7 23 7
12 12 24 13 27 0 3 8 28 18 55 19 51 25 67 47 120 7 17 14 39 16 51 2 11 53
195 114 409 61 213 112 395 114 404 2 9 6 23 9 31 8 20 146 505 151 533 2 12
9 34 15 50 6 15 9 27 7 27 -3 0 4 24 14 53 10 28 30 95 44 148 15 54 37 115
49 137 119 215 256 456 282 497 43 68 215 381 215 392 0 5 18 22 41 39 22 16
69 52 103 81 34 28 92 75 128 105 36 29 112 91 169 137 57 47 106 87 109 91 3
3 37 30 75 60 39 30 75 59 81 65 19 17 57 48 109 90 27 22 55 45 61 50 6 6 33
28 60 50 55 45 83 73 136 136 20 24 56 65 80 91 24 25 72 79 108 119 36 40
105 116 153 168 49 53 112 123 140 156 52 62 107 97 342 221 44 23 123 67 175
96 133 77 142 81 265 133 61 25 271 114 468 198 l357 152 0 37 c0 43 -11 38
160 72 69 14 339 70 600 126 453 97 554 118 1050 226 118 25 231 49 250 53 19
4 44 12 55 18 22 12 259 81 675 198 151 42 295 83 320 92 33 11 327 34 1110
85 586 38 1115 72 1175 74 61 3 271 14 468 25 197 11 360 19 362 17 2 -2 -133
-473 -301 -1047 -167 -574 -304 -1049 -304 -1056 0 -6 28 -25 62 -41 191 -90
347 -233 427 -391 26 -52 26 -53 -1 -53 -36 0 -120 -44 -157 -81 -77 -77 -100
-213 -52 -311 31 -64 101 -125 168 -144 29 -8 53 -19 53 -23 0 -5 -25 -174
-55 -377 -30 -203 -55 -372 -55 -376 0 -5 29 -8 65 -8 l65 0 0 -160 0 -159
-90 -61 c-206 -138 -340 -273 -408 -409 -34 -69 -37 -82 -37 -160 0 -105 17
-154 87 -248 230 -311 189 -574 -119 -776 -40 -26 -91 -71 -114 -100 -40 -50
-110 -180 -122 -228 -11 -42 -14 -15 -7 66 4 44 15 109 25 145 31 116 36 154
29 220 -28 277 -215 507 -538 661 -133 63 -253 102 -459 150 -198 46 -280 83
-349 157 -113 121 -85 282 85 493 26 32 43 59 36 59 -19 0 -460 -448 -552
-561 -275 -338 -398 -611 -366 -808 19 -120 65 -181 209 -276 159 -105 243
-215 271 -354 23 -118 -22 -262 -125 -398 -54 -72 -81 -142 -96 -256 -7 -45
-13 -83 -15 -85 -5 -5 -16 66 -25 168 -7 84 -14 114 -43 173 -112 235 -330
381 -647 433 -124 21 -397 21 -550 0 -310 -42 -459 5 -515 165 -30 83 -9 257
44 382 11 26 16 47 12 47 -14 0 -193 -360 -264 -530 -237 -571 -270 -967 -94
-1148 55 -57 110 -84 237 -116 134 -33 215 -73 290 -143 131 -121 167 -306 99
-510 -19 -57 -21 -80 -16 -172 3 -58 11 -121 17 -139 7 -18 10 -35 7 -38 -5
-5 -30 45 -100 196 -25 53 -150 164 -234 208 -294 153 -661 110 -1143 -133
-150 -76 -211 -95 -304 -95 -189 1 -285 139 -289 417 -1 56 -5 99 -9 95 -8 -9
-44 -279 -59 -442 -16 -185 -14 -552 5 -690 44 -320 150 -519 311 -579 56 -21
69 -22 240 -16 193 8 259 -1 349 -47 64 -33 140 -112 174 -181 38 -78 51 -136
61 -265 7 -91 12 -111 49 -185 22 -45 64 -111 92 -146 l52 -64 -61 44 c-33 24
-75 54 -92 66 -109 78 -319 102 -492 57 -258 -66 -524 -295 -764 -654 -156
-233 -310 -313 -459 -237 -62 32 -157 132 -204 216 -90 161 -70 81 52 -209
217 -514 484 -897 704 -1012 162 -84 284 -72 442 44 246 182 476 180 656 -5
39 -40 87 -101 107 -135 63 -108 221 -213 371 -247 l63 -15 -90 6 c-49 3 -133
17 -185 31 -79 21 -110 24 -180 20 -231 -15 -431 -147 -585 -385 -94 -146
-172 -348 -219 -567 -14 -66 -31 -142 -37 -170 -31 -132 -119 -258 -205 -291
-104 -40 -239 0 -395 118 -44 33 -82 58 -85 56 -8 -8 254 -275 375 -382 372
-329 645 -493 869 -524 187 -26 310 36 411 208 25 42 76 106 115 145 188 185
389 190 639 15 80 -56 157 -82 282 -96 62 -6 66 -8 40 -16 -16 -4 -77 -12
-135 -17 -94 -9 -113 -14 -197 -56 -215 -106 -357 -322 -408 -619 -21 -123
-20 -390 3 -548 23 -162 22 -317 -1 -384 -34 -99 -115 -162 -227 -179 -58 -8
-159 8 -271 44 -49 16 -89 26 -89 22 0 -11 297 -156 455 -223 77 -33 212 -84
300 -113 614 -205 972 -132 1034 212 46 252 185 417 381 453 79 14 157 7 280
-27 89 -25 99 -26 185 -15 50 6 111 18 135 27 41 13 43 13 25 -1 -11 -8 -66
-38 -121 -65 -114 -56 -195 -127 -253 -223 -180 -299 -143 -673 115 -1176 41
-80 81 -170 89 -200 19 -73 19 -181 -1 -228 -48 -116 -193 -181 -403 -182 -60
0 -91 -4 -85 -9 5 -6 92 -20 194 -32 157 -20 236 -23 525 -23 309 -1 351 1
460 21 220 40 347 94 441 188 100 99 118 176 93 388 -28 230 61 422 233 506
72 35 191 61 276 61 49 0 73 7 148 44 49 24 116 65 149 92 58 47 59 48 35 14
-13 -19 -45 -63 -71 -96 -68 -90 -90 -163 -96 -312 -4 -95 -2 -139 12 -195 23
-99 100 -256 172 -352 74 -98 249 -268 366 -355 l87 -64 0 -348 0 -348 -37
-20 -38 -21 37 6 38 6 2 -1543 3 -1543 27 -51 c54 -102 157 -167 292 -184 198
-25 373 48 440 182 l26 52 0 1726 0 1726 113 74 c159 105 320 266 372 372 70
144 59 263 -39 405 -122 179 -160 306 -131 444 26 128 93 214 245 314 52 35
107 76 121 92 65 70 125 181 154 283 l15 55 -5 -75 c-2 -41 -14 -111 -27 -155
-56 -204 -21 -391 106 -569 150 -210 451 -375 841 -461 259 -56 363 -112 416
-223 56 -115 -1 -290 -149 -454 -69 -77 -11 -35 119 86 389 361 670 733 761
1011 34 104 33 249 -3 325 -31 67 -99 137 -174 179 -93 52 -200 162 -243 249
-36 73 -37 80 -37 181 0 100 2 110 35 181 19 41 57 104 84 140 58 77 92 173
104 293 l8 82 12 -70 c6 -38 16 -108 21 -154 29 -264 267 -483 610 -563 165
-38 520 -35 781 7 44 7 169 -14 218 -35 161 -72 198 -234 111 -489 -16 -47
-27 -86 -25 -89 12 -11 217 407 289 588 117 297 167 500 175 700 5 155 -5 221
-49 309 -32 64 -85 119 -147 150 -21 11 -85 31 -143 45 -202 50 -328 137 -392
273 -30 65 -32 73 -31 183 0 96 5 128 27 195 15 45 27 102 27 130 -1 49 -21
180 -35 220 -15 45 56 -84 76 -137 45 -120 209 -259 367 -311 275 -91 610 -33
1027 176 158 79 216 97 312 97 119 0 199 -52 245 -160 28 -64 48 -178 49 -278
1 -114 11 -78 38 133 61 490 51 909 -29 1170 -47 153 -137 278 -234 325 -58
27 -146 40 -216 29 -145 -21 -301 -4 -393 42 -148 75 -218 201 -238 428 -10
106 -15 124 -55 207 -26 56 -64 114 -96 150 -59 65 -47 61 72 -26 180 -131
428 -142 666 -31 222 104 411 286 624 600 130 193 226 265 350 265 44 0 76 -6
100 -18 89 -47 175 -142 242 -268 18 -33 34 -56 35 -51 6 18 -137 364 -222
538 -234 476 -463 748 -688 817 -125 38 -219 14 -369 -94 -87 -63 -177 -102
-273 -119 -184 -32 -356 72 -487 294 -51 86 -217 192 -350 222 l-63 15 89 -6
c49 -3 131 -16 182 -30 110 -28 157 -30 261 -8 278 57 500 283 638 651 36 96
69 217 100 368 56 271 156 397 314 396 96 0 206 -50 326 -145 122 -98 62 -25
-156 189 -413 405 -723 614 -994 670 -193 40 -335 -25 -437 -200 -55 -93 -176
-214 -251 -249 -152 -71 -301 -52 -468 61 -40 26 -86 56 -103 65 -43 24 -137
47 -221 55 -61 6 -66 8 -40 15 17 4 75 13 130 18 116 12 184 36 277 97 166
109 276 288 330 535 32 149 31 440 -1 658 -24 161 -23 216 5 309 43 145 174
211 355 181 41 -7 107 -24 147 -37 41 -14 76 -22 79 -19 10 9 -374 191 -547
259 -311 123 -519 175 -730 184 -195 8 -298 -20 -391 -104 -66 -60 -88 -107
-124 -263 -76 -330 -312 -478 -620 -388 -103 30 -239 30 -335 -1 -87 -27 -59
-6 80 61 121 58 199 129 263 239 66 112 89 203 95 364 7 250 -43 439 -203 760
-105 211 -130 288 -123 380 14 171 135 250 413 271 l100 8 -77 12 c-182 29
-440 47 -673 46 -352 0 -554 -32 -730 -117 -117 -56 -175 -108 -217 -193 -37
-74 -40 -116 -24 -332 10 -124 -6 -209 -56 -302 -73 -138 -206 -207 -434 -226
-87 -8 -109 -14 -179 -50 -45 -22 -107 -62 -139 -88 -64 -51 -62 -40 8 50 134
173 142 445 19 691 -81 164 -257 356 -460 505 l-103 75 0 342 0 342 83 3 83 3
-57 380 c-40 271 -53 382 -45 387 6 4 20 8 31 8 36 0 123 58 153 102 39 58 52
100 52 167 -1 132 -81 233 -207 263 l-51 12 25 51 c81 159 244 308 430 392 32
14 59 27 61 28 2 2 -596 2064 -613 2112 -5 15 168 10 452 -12z m-307 -2723
c100 -50 105 -190 9 -247 -32 -19 -55 -20 -456 -23 -274 -2 -437 1 -462 8 -24
6 -52 24 -70 45 -58 66 -36 180 40 218 30 15 84 17 469 17 394 0 438 -2 470
-18z m-170 -410 c0 -4 20 -143 45 -307 25 -165 45 -306 45 -312 0 -10 -85 -13
-391 -13 l-391 0 5 23 c3 12 24 150 47 307 23 157 43 291 45 298 3 9 72 12
300 12 162 0 295 -4 295 -8z m-185 -816 c-66 -29 -180 -83 -252 -120 l-133
-66 0 120 0 120 253 0 252 0 -120 -54z m133 -408 l-3 -143 -56 57 c-152 151
-152 306 -2 453 l58 56 3 -140 c1 -78 1 -205 0 -283z m-263 -7392 c118 0 149
4 199 22 33 12 61 22 63 22 1 0 3 -2239 3 -4975 0 -4349 -2 -4980 -15 -5004
-36 -71 -127 -111 -249 -111 -116 0 -187 30 -233 99 l-23 34 0 4977 0 4977 58
-21 c48 -17 79 -21 197 -20z"/>
</g>
</svg>
